<svg width="472" height="118" viewBox="0 0 472 118" fill="none" xmlns="http://www.w3.org/2000/svg">
<g clip-path="url(#clip0_32_3)">
<g clip-path="url(#clip1_32_3)">
<g clip-path="url(#clip2_32_3)">
<path d="M28.2567 0.5H443.743C459.055 0.5 471.469 12.9133 471.469 28.226V89.194C471.469 104.507 459.055 116.92 443.743 116.92H28.2567C12.9441 116.92 0.530762 104.507 0.530762 89.194V28.226C0.530762 12.9133 12.9441 0.5 28.2567 0.5Z" fill="#E6F0FB" />
<path d="M412.958 39.3618H414.319V34.2009C414.319 33.6883 414.409 33.2491 414.589 32.8822C414.768 32.5153 415.022 32.2319 415.35 32.032C415.677 31.8322 416.066 31.7328 416.513 31.7328C417.182 31.7328 417.678 31.9225 417.997 32.303C418.318 32.6824 418.478 33.265 418.478 34.0496V39.3618H419.838V33.7132C419.838 32.679 419.585 31.8819 419.077 31.323C418.569 30.7641 417.843 30.4841 416.898 30.4841C416.277 30.4841 415.766 30.6128 415.364 30.8691C414.958 31.1305 414.637 31.5049 414.44 31.9462H414.319V30.6388H412.958V39.3618ZM425.328 39.5164C426.129 39.5164 426.817 39.3347 427.394 38.97C427.974 38.6053 428.42 38.0859 428.735 37.4119C429.051 36.7367 429.209 35.9363 429.209 35.0071V34.9913C429.209 34.0587 429.051 33.2548 428.735 32.5808C428.42 31.9067 427.974 31.3885 427.395 31.0261C426.817 30.6648 426.128 30.4841 425.328 30.4841C424.533 30.4841 423.845 30.6648 423.264 31.0261C422.684 31.3874 422.237 31.9067 421.921 32.5808C421.605 33.2548 421.448 34.0587 421.448 34.9913V35.0082C421.448 35.9351 421.606 36.7367 421.922 37.4119C422.236 38.0859 422.684 38.6053 423.265 38.97C423.845 39.3347 424.533 39.5164 425.328 39.5164ZM425.328 38.2677C424.799 38.2677 424.349 38.139 423.98 37.8805C423.611 37.6208 423.329 37.2482 423.133 36.7627C422.937 36.2772 422.84 35.6935 422.84 35.0082V34.9913C422.84 34.3025 422.937 33.7143 423.133 33.2288C423.329 32.7433 423.611 32.373 423.98 32.1167C424.349 31.8604 424.799 31.7328 425.328 31.7328C425.857 31.7328 426.306 31.8604 426.676 32.1167C427.046 32.373 427.328 32.7433 427.523 33.2288C427.718 33.7143 427.817 34.3014 427.817 34.9913V35.0082C427.817 35.6935 427.718 36.2784 427.523 36.7638C427.328 37.2493 427.046 37.6219 426.676 37.8805C426.307 38.139 425.858 38.2677 425.328 38.2677ZM432.221 39.3618H433.582L435.456 32.6124H435.577L437.459 39.3618H438.828L441.184 30.6388H439.832L438.177 37.6197H438.056L436.173 30.6388H434.882L433 37.6197H432.879L431.224 30.6388H429.864L432.221 39.3618Z" fill="black" fill-opacity="0.477"/>
<path d="M82.4505 19.1936H38.418C29.0647 19.1936 21.4824 26.7759 21.4824 36.1292V81.2907C21.4824 90.644 29.0647 98.2263 38.418 98.2263H82.4505C91.8038 98.2263 99.3861 90.644 99.3861 81.2907V36.1292C99.3861 26.7759 91.8038 19.1936 82.4505 19.1936Z" fill="#0071E3"/>
<g clip-path="url(#clip3_32_3)">
<path d="M55.1477 43.0525C51.9504 44.1617 49.1931 46.2669 47.2807 49.059C45.3683 51.8511 44.4017 55.1829 44.5228 58.5649C44.644 61.947 45.8465 65.201 47.9537 67.8492C50.0609 70.4973 52.9618 72.3999 56.2302 73.2775C58.88 73.9612 61.6563 73.9913 64.3202 73.365C66.7335 72.8229 68.9647 71.6634 70.7952 70C72.7004 68.2159 74.0833 65.9462 74.7952 63.435C75.569 60.7042 75.7067 57.8323 75.1977 55.04H60.3177V61.2125H68.9352C68.763 62.197 68.3939 63.1366 67.8501 63.9751C67.3063 64.8136 66.5989 65.5338 65.7702 66.0925C64.7179 66.7886 63.5317 67.2569 62.2877 67.4675C61.0401 67.6995 59.7604 67.6995 58.5127 67.4675C57.2482 67.2061 56.052 66.6841 55.0002 65.935C53.3106 64.739 52.0419 63.0398 51.3752 61.08C50.6973 59.0835 50.6973 56.919 51.3752 54.9225C51.8498 53.523 52.6343 52.2488 53.6702 51.195C54.8557 49.9669 56.3566 49.089 58.0081 48.6577C59.6597 48.2264 61.3981 48.2583 63.0327 48.75C64.3097 49.142 65.4773 49.8268 66.4427 50.75C67.4144 49.7833 68.3844 48.8142 69.3527 47.8425C69.8527 47.32 70.3977 46.8225 70.8902 46.2875C69.4166 44.9162 67.6869 43.8491 65.8002 43.1475C62.3645 41.9 58.6052 41.8664 55.1477 43.0525Z" fill="white"/>
<path d="M55.1474 43.0525C58.6046 41.8656 62.3639 41.8983 65.7999 43.145C67.687 43.8514 69.4159 44.9236 70.8874 46.3C70.3874 46.835 69.8599 47.335 69.3499 47.855C68.3799 48.8233 67.4108 49.7883 66.4424 50.75C65.4771 49.8268 64.3094 49.142 63.0324 48.75C61.3984 48.2566 59.66 48.2228 58.008 48.6523C56.356 49.0819 54.8542 49.9581 53.6674 51.185C52.6315 52.2388 51.847 53.513 51.3724 54.9125L46.1899 50.9C48.045 47.2214 51.2568 44.4075 55.1474 43.0525Z" fill="white"/>
<path d="M44.8149 54.8749C45.0934 53.4944 45.5559 52.1575 46.1899 50.8999L51.3724 54.9224C50.6944 56.9189 50.6944 59.0834 51.3724 61.0799C49.6457 62.4132 47.9182 63.7532 46.1899 65.0999C44.6028 61.9407 44.1187 58.3412 44.8149 54.8749Z" fill="white"/>
<path d="M60.3175 55.0376H75.1975C75.7065 57.8299 75.5688 60.7018 74.795 63.4326C74.0831 65.9438 72.7002 68.2135 70.795 69.9976C69.1225 68.6926 67.4425 67.3976 65.77 66.0926C66.5992 65.5333 67.3069 64.8123 67.8508 63.9729C68.3946 63.1335 68.7634 62.193 68.935 61.2076H60.3175C60.315 59.1526 60.3175 57.0951 60.3175 55.0376Z" fill="white"/>
<path d="M46.1875 65.1001C47.9158 63.7667 49.6433 62.4267 51.37 61.0801C52.038 63.0406 53.3085 64.7398 55 65.9351C56.055 66.6807 57.2538 67.1984 58.52 67.4551C59.7676 67.6871 61.0474 67.6871 62.295 67.4551C63.539 67.2445 64.7252 66.7762 65.7775 66.0801C67.45 67.3851 69.13 68.6801 70.8025 69.9851C68.9722 71.6494 66.741 72.8098 64.3275 73.3526C61.6635 73.9788 58.8873 73.9488 56.2375 73.2651C54.1418 72.7055 52.1842 71.7191 50.4875 70.3676C48.6917 68.9418 47.2249 67.145 46.1875 65.1001Z" fill="white"/>
</g>
<path d="M131.004 32.9091V46H129.189L122.535 36.3991H122.413V46H120.438V32.9091H122.266L128.927 42.5227H129.048V32.9091H131.004ZM136.524 46.1982C135.556 46.1982 134.723 45.9915 134.024 45.5781C133.33 45.1605 132.793 44.5746 132.414 43.8203C132.039 43.0618 131.851 42.1733 131.851 41.1548C131.851 40.1491 132.039 39.2628 132.414 38.4957C132.793 37.7287 133.321 37.13 133.999 36.6996C134.681 36.2692 135.477 36.054 136.389 36.054C136.943 36.054 137.48 36.1456 138 36.3288C138.52 36.5121 138.987 36.7997 139.4 37.1918C139.813 37.5838 140.139 38.093 140.378 38.7195C140.617 39.3416 140.736 40.098 140.736 40.9886V41.6662H132.931V40.2344H138.863C138.863 39.7315 138.761 39.2862 138.556 38.8984C138.352 38.5064 138.064 38.1974 137.693 37.9716C137.327 37.7457 136.896 37.6328 136.402 37.6328C135.865 37.6328 135.396 37.7649 134.996 38.0291C134.6 38.2891 134.293 38.63 134.075 39.0518C133.862 39.4695 133.756 39.9233 133.756 40.4134V41.532C133.756 42.1882 133.871 42.7464 134.101 43.2067C134.335 43.6669 134.661 44.0185 135.079 44.2614C135.497 44.5 135.985 44.6193 136.543 44.6193C136.905 44.6193 137.235 44.5682 137.534 44.4659C137.832 44.3594 138.09 44.2017 138.307 43.9929C138.524 43.7841 138.691 43.5263 138.806 43.2195L140.615 43.5455C140.47 44.0781 140.21 44.5447 139.835 44.9453C139.464 45.3416 138.997 45.6506 138.435 45.8722C137.877 46.0895 137.24 46.1982 136.524 46.1982ZM143.527 46L140.638 36.1818H142.613L144.537 43.392H144.633L146.564 36.1818H148.539L150.456 43.3601H150.552L152.464 36.1818H154.439L151.556 46H149.606L147.612 38.9112H147.465L145.471 46H143.527ZM160.265 46L157.375 36.1818H159.351L161.275 43.392H161.371L163.301 36.1818H165.276L167.194 43.3601H167.29L169.201 36.1818H171.176L168.293 46H166.344L164.349 38.9112H164.202L162.208 46H160.265ZM175.482 46.1982C174.515 46.1982 173.682 45.9915 172.983 45.5781C172.288 45.1605 171.752 44.5746 171.372 43.8203C170.997 43.0618 170.81 42.1733 170.81 41.1548C170.81 40.1491 170.997 39.2628 171.372 38.4957C171.752 37.7287 172.28 37.13 172.957 36.6996C173.639 36.2692 174.436 36.054 175.348 36.054C175.902 36.054 176.439 36.1456 176.959 36.3288C177.479 36.5121 177.945 36.7997 178.359 37.1918C178.772 37.5838 179.098 38.093 179.337 38.7195C179.575 39.3416 179.695 40.098 179.695 40.9886V41.6662H171.89V40.2344H177.822C177.822 39.7315 177.72 39.2862 177.515 38.8984C177.31 38.5064 177.023 38.1974 176.652 37.9716C176.286 37.7457 175.855 37.6328 175.361 37.6328C174.824 37.6328 174.355 37.7649 173.955 38.0291C173.558 38.2891 173.252 38.63 173.034 39.0518C172.821 39.4695 172.715 39.9233 172.715 40.4134V41.532C172.715 42.1882 172.83 42.7464 173.06 43.2067C173.294 43.6669 173.62 44.0185 174.038 44.2614C174.455 44.5 174.943 44.6193 175.502 44.6193C175.864 44.6193 176.194 44.5682 176.492 44.4659C176.791 44.3594 177.048 44.2017 177.266 43.9929C177.483 43.7841 177.649 43.5263 177.764 43.2195L179.573 43.5455C179.428 44.0781 179.168 44.5447 178.793 44.9453C178.423 45.3416 177.956 45.6506 177.394 45.8722C176.835 46.0895 176.198 46.1982 175.482 46.1982ZM180.529 46V32.9091H182.44V37.7734H182.555C182.666 37.5689 182.826 37.3324 183.034 37.0639C183.243 36.7955 183.533 36.5611 183.904 36.3608C184.274 36.1562 184.764 36.054 185.374 36.054C186.166 36.054 186.874 36.2543 187.496 36.6548C188.118 37.0554 188.606 37.6328 188.96 38.3871C189.318 39.1413 189.497 40.049 189.497 41.1101C189.497 42.1712 189.32 43.081 188.966 43.8395C188.612 44.5937 188.127 45.1754 187.509 45.5845C186.891 45.9893 186.186 46.1918 185.393 46.1918C184.796 46.1918 184.309 46.0916 183.929 45.8913C183.554 45.6911 183.26 45.4567 183.047 45.1882C182.834 44.9197 182.67 44.6811 182.555 44.4723H182.395V46H180.529ZM182.402 41.0909C182.402 41.7812 182.502 42.3864 182.702 42.9062C182.902 43.4261 183.192 43.8331 183.571 44.1271C183.951 44.4169 184.415 44.5618 184.965 44.5618C185.536 44.5618 186.013 44.4105 186.397 44.108C186.78 43.8011 187.07 43.3857 187.266 42.8615C187.466 42.3374 187.566 41.7472 187.566 41.0909C187.566 40.4432 187.468 39.8615 187.272 39.3459C187.081 38.8303 186.791 38.4233 186.403 38.125C186.019 37.8267 185.54 37.6776 184.965 37.6776C184.411 37.6776 183.942 37.8203 183.559 38.1058C183.179 38.3913 182.892 38.7898 182.696 39.3011C182.5 39.8125 182.402 40.4091 182.402 41.0909ZM197.56 38.5788L195.828 38.8857C195.755 38.6641 195.64 38.4531 195.483 38.2528C195.329 38.0526 195.12 37.8885 194.856 37.7607C194.592 37.6328 194.262 37.5689 193.865 37.5689C193.324 37.5689 192.873 37.6903 192.51 37.9332C192.148 38.1719 191.967 38.4808 191.967 38.8601C191.967 39.1882 192.088 39.4524 192.331 39.6527C192.574 39.853 192.966 40.017 193.508 40.1449L195.067 40.5028C195.971 40.7116 196.644 41.0334 197.087 41.468C197.53 41.9027 197.752 42.4673 197.752 43.1619C197.752 43.75 197.581 44.2741 197.24 44.7344C196.904 45.1903 196.433 45.5483 195.828 45.8082C195.227 46.0682 194.53 46.1982 193.738 46.1982C192.638 46.1982 191.741 45.9638 191.047 45.495C190.352 45.022 189.926 44.3509 189.768 43.4815L191.615 43.2003C191.731 43.6818 191.967 44.0462 192.325 44.2933C192.683 44.5362 193.15 44.6577 193.725 44.6577C194.351 44.6577 194.852 44.5277 195.227 44.2678C195.602 44.0036 195.789 43.6818 195.789 43.3026C195.789 42.9957 195.674 42.7379 195.444 42.5291C195.218 42.3203 194.871 42.1626 194.402 42.0561L192.74 41.6918C191.824 41.483 191.147 41.1506 190.708 40.6946C190.273 40.2386 190.056 39.6612 190.056 38.9624C190.056 38.3828 190.218 37.8757 190.542 37.4411C190.865 37.0064 191.313 36.6676 191.884 36.4247C192.455 36.1776 193.109 36.054 193.846 36.054C194.907 36.054 195.743 36.2841 196.352 36.7443C196.961 37.2003 197.364 37.8118 197.56 38.5788ZM198.413 46V36.1818H200.324V46H198.413ZM199.378 34.6669C199.046 34.6669 198.761 34.5561 198.522 34.3345C198.288 34.1087 198.17 33.8402 198.17 33.5291C198.17 33.2138 198.288 32.9453 198.522 32.7237C198.761 32.4979 199.046 32.3849 199.378 32.3849C199.711 32.3849 199.994 32.4979 200.229 32.7237C200.467 32.9453 200.587 33.2138 200.587 33.5291C200.587 33.8402 200.467 34.1087 200.229 34.3345C199.994 34.5561 199.711 34.6669 199.378 34.6669ZM206.039 36.1818V37.7159H200.676V36.1818H206.039ZM202.114 33.8295H204.025V43.1172C204.025 43.4879 204.081 43.767 204.191 43.9545C204.302 44.1378 204.445 44.2635 204.62 44.3317C204.799 44.3956 204.993 44.4276 205.201 44.4276C205.355 44.4276 205.489 44.4169 205.604 44.3956C205.719 44.3743 205.809 44.3572 205.873 44.3445L206.218 45.9233C206.107 45.9659 205.949 46.0085 205.745 46.0511C205.54 46.098 205.284 46.1236 204.978 46.1278C204.475 46.1364 204.006 46.0469 203.571 45.8594C203.137 45.6719 202.785 45.3821 202.517 44.9901C202.248 44.598 202.114 44.1058 202.114 43.5135V33.8295ZM210.839 46.1982C209.872 46.1982 209.039 45.9915 208.34 45.5781C207.645 45.1605 207.108 44.5746 206.729 43.8203C206.354 43.0618 206.166 42.1733 206.166 41.1548C206.166 40.1491 206.354 39.2628 206.729 38.4957C207.108 37.7287 207.637 37.13 208.314 36.6996C208.996 36.2692 209.793 36.054 210.705 36.054C211.259 36.054 211.796 36.1456 212.316 36.3288C212.835 36.5121 213.302 36.7997 213.715 37.1918C214.129 37.5838 214.455 38.093 214.693 38.7195C214.932 39.3416 215.051 40.098 215.051 40.9886V41.6662H207.247V40.2344H213.178C213.178 39.7315 213.076 39.2862 212.872 38.8984C212.667 38.5064 212.379 38.1974 212.009 37.9716C211.642 37.7457 211.212 37.6328 210.718 37.6328C210.181 37.6328 209.712 37.7649 209.311 38.0291C208.915 38.2891 208.608 38.63 208.391 39.0518C208.178 39.4695 208.071 39.9233 208.071 40.4134V41.532C208.071 42.1882 208.186 42.7464 208.416 43.2067C208.651 43.6669 208.977 44.0185 209.394 44.2614C209.812 44.5 210.3 44.6193 210.858 44.6193C211.22 44.6193 211.551 44.5682 211.849 44.4659C212.147 44.3594 212.405 44.2017 212.622 43.9929C212.84 43.7841 213.006 43.5263 213.121 43.2195L214.93 43.5455C214.785 44.0781 214.525 44.5447 214.15 44.9453C213.779 45.3416 213.313 45.6506 212.75 45.8722C212.192 46.0895 211.555 46.1982 210.839 46.1982ZM219.056 46V36.1818H220.967V46H219.056ZM220.021 34.6669C219.688 34.6669 219.403 34.5561 219.164 34.3345C218.93 34.1087 218.813 33.8402 218.813 33.5291C218.813 33.2138 218.93 32.9453 219.164 32.7237C219.403 32.4979 219.688 32.3849 220.021 32.3849C220.353 32.3849 220.637 32.4979 220.871 32.7237C221.11 32.9453 221.229 33.2138 221.229 33.5291C221.229 33.8402 221.11 34.1087 220.871 34.3345C220.637 34.5561 220.353 34.6669 220.021 34.6669ZM224.009 40.1705V46H222.098V36.1818H223.933V37.7798H224.054C224.28 37.2599 224.634 36.8423 225.115 36.527C225.601 36.2116 226.212 36.054 226.95 36.054C227.619 36.054 228.205 36.1946 228.707 36.4759C229.21 36.7528 229.6 37.1662 229.877 37.7159C230.154 38.2656 230.293 38.9453 230.293 39.755V46H228.381V39.9851C228.381 39.2734 228.196 38.7173 227.825 38.3168C227.455 37.9119 226.945 37.7095 226.298 37.7095C225.854 37.7095 225.46 37.8054 225.115 37.9972C224.774 38.1889 224.504 38.4702 224.303 38.8409C224.107 39.2074 224.009 39.6506 224.009 40.1705ZM235.091 46.1918C234.299 46.1918 233.591 45.9893 232.969 45.5845C232.351 45.1754 231.865 44.5937 231.512 43.8395C231.162 43.081 230.988 42.1712 230.988 41.1101C230.988 40.049 231.164 39.1413 231.518 38.3871C231.876 37.6328 232.366 37.0554 232.988 36.6548C233.61 36.2543 234.316 36.054 235.104 36.054C235.713 36.054 236.203 36.1562 236.574 36.3608C236.949 36.5611 237.239 36.7955 237.444 37.0639C237.652 37.3324 237.814 37.5689 237.929 37.7734H238.044V32.9091H239.956V46H238.089V44.4723H237.929C237.814 44.6811 237.648 44.9197 237.431 45.1882C237.218 45.4567 236.924 45.6911 236.549 45.8913C236.174 46.0916 235.688 46.1918 235.091 46.1918ZM235.513 44.5618C236.063 44.5618 236.527 44.4169 236.907 44.1271C237.29 43.8331 237.58 43.4261 237.776 42.9062C237.976 42.3864 238.076 41.7812 238.076 41.0909C238.076 40.4091 237.978 39.8125 237.782 39.3011C237.586 38.7898 237.299 38.3913 236.919 38.1058C236.54 37.8203 236.071 37.6776 235.513 37.6776C234.938 37.6776 234.458 37.8267 234.075 38.125C233.691 38.4233 233.402 38.8303 233.206 39.3459C233.014 39.8615 232.918 40.4432 232.918 41.0909C232.918 41.7472 233.016 42.3374 233.212 42.8615C233.408 43.3857 233.698 43.8011 234.081 44.108C234.469 44.4105 234.946 44.5618 235.513 44.5618ZM245.475 46.1982C244.508 46.1982 243.675 45.9915 242.976 45.5781C242.281 45.1605 241.744 44.5746 241.365 43.8203C240.99 43.0618 240.802 42.1733 240.802 41.1548C240.802 40.1491 240.99 39.2628 241.365 38.4957C241.744 37.7287 242.273 37.13 242.95 36.6996C243.632 36.2692 244.429 36.054 245.341 36.054C245.895 36.054 246.432 36.1456 246.951 36.3288C247.471 36.5121 247.938 36.7997 248.351 37.1918C248.765 37.5838 249.091 38.093 249.329 38.7195C249.568 39.3416 249.687 40.098 249.687 40.9886V41.6662H241.883V40.2344H247.814C247.814 39.7315 247.712 39.2862 247.508 38.8984C247.303 38.5064 247.015 38.1974 246.645 37.9716C246.278 37.7457 245.848 37.6328 245.353 37.6328C244.817 37.6328 244.348 37.7649 243.947 38.0291C243.551 38.2891 243.244 38.63 243.027 39.0518C242.814 39.4695 242.707 39.9233 242.707 40.4134V41.532C242.707 42.1882 242.822 42.7464 243.052 43.2067C243.287 43.6669 243.613 44.0185 244.03 44.2614C244.448 44.5 244.936 44.6193 245.494 44.6193C245.856 44.6193 246.187 44.5682 246.485 44.4659C246.783 44.3594 247.041 44.2017 247.258 43.9929C247.476 43.7841 247.642 43.5263 247.757 43.2195L249.566 43.5455C249.421 44.0781 249.161 44.5447 248.786 44.9453C248.415 45.3416 247.949 45.6506 247.386 45.8722C246.828 46.0895 246.191 46.1982 245.475 46.1982ZM251.648 36.1818L253.815 40.0043L256.001 36.1818H258.091L255.029 41.0909L258.117 46H256.026L253.815 42.331L251.609 46H249.513L252.568 41.0909L249.551 36.1818H251.648ZM262.458 46.1982C261.491 46.1982 260.658 45.9915 259.959 45.5781C259.264 45.1605 258.727 44.5746 258.348 43.8203C257.973 43.0618 257.786 42.1733 257.786 41.1548C257.786 40.1491 257.973 39.2628 258.348 38.4957C258.727 37.7287 259.256 37.13 259.933 36.6996C260.615 36.2692 261.412 36.054 262.324 36.054C262.878 36.054 263.415 36.1456 263.935 36.3288C264.455 36.5121 264.921 36.7997 265.335 37.1918C265.748 37.5838 266.074 38.093 266.313 38.7195C266.551 39.3416 266.671 40.098 266.671 40.9886V41.6662H258.866V40.2344H264.798C264.798 39.7315 264.695 39.2862 264.491 38.8984C264.286 38.5064 263.999 38.1974 263.628 37.9716C263.261 37.7457 262.831 37.6328 262.337 37.6328C261.8 37.6328 261.331 37.7649 260.931 38.0291C260.534 38.2891 260.227 38.63 260.01 39.0518C259.797 39.4695 259.69 39.9233 259.69 40.4134V41.532C259.69 42.1882 259.806 42.7464 260.036 43.2067C260.27 43.6669 260.596 44.0185 261.014 44.2614C261.431 44.5 261.919 44.6193 262.477 44.6193C262.84 44.6193 263.17 44.5682 263.468 44.4659C263.766 44.3594 264.024 44.2017 264.242 43.9929C264.459 43.7841 264.625 43.5263 264.74 43.2195L266.549 43.5455C266.404 44.0781 266.144 44.5447 265.769 44.9453C265.399 45.3416 264.932 45.6506 264.369 45.8722C263.811 46.0895 263.174 46.1982 262.458 46.1982ZM271.027 46.1918C270.234 46.1918 269.527 45.9893 268.904 45.5845C268.287 45.1754 267.801 44.5937 267.447 43.8395C267.098 43.081 266.923 42.1712 266.923 41.1101C266.923 40.049 267.1 39.1413 267.453 38.3871C267.811 37.6328 268.301 37.0554 268.924 36.6548C269.546 36.2543 270.251 36.054 271.039 36.054C271.649 36.054 272.139 36.1562 272.51 36.3608C272.885 36.5611 273.174 36.7955 273.379 37.0639C273.588 37.3324 273.75 37.5689 273.865 37.7734H273.98V32.9091H275.891V46H274.024V44.4723H273.865C273.75 44.6811 273.583 44.9197 273.366 45.1882C273.153 45.4567 272.859 45.6911 272.484 45.8913C272.109 46.0916 271.623 46.1918 271.027 46.1918ZM271.448 44.5618C271.998 44.5618 272.463 44.4169 272.842 44.1271C273.225 43.8331 273.515 43.4261 273.711 42.9062C273.912 42.3864 274.012 41.7812 274.012 41.0909C274.012 40.4091 273.914 39.8125 273.718 39.3011C273.522 38.7898 273.234 38.3913 272.855 38.1058C272.475 37.8203 272.007 37.6776 271.448 37.6776C270.873 37.6776 270.394 37.8267 270.01 38.125C269.627 38.4233 269.337 38.8303 269.141 39.3459C268.949 39.8615 268.853 40.4432 268.853 41.0909C268.853 41.7472 268.951 42.3374 269.147 42.8615C269.343 43.3857 269.633 43.8011 270.017 44.108C270.404 44.4105 270.882 44.5618 271.448 44.5618ZM286.287 38.6236V40.2855H280.483V38.6236H286.287ZM299.731 37.0447C299.607 36.657 299.441 36.3097 299.232 36.0028C299.028 35.6918 298.783 35.4276 298.497 35.2102C298.212 34.9886 297.886 34.8203 297.519 34.7053C297.157 34.5902 296.759 34.5327 296.324 34.5327C295.587 34.5327 294.922 34.7223 294.33 35.1016C293.737 35.4808 293.269 36.0369 292.923 36.7699C292.582 37.4986 292.412 38.3913 292.412 39.4482C292.412 40.5092 292.585 41.4062 292.93 42.1392C293.275 42.8722 293.748 43.4283 294.349 43.8075C294.95 44.1868 295.634 44.3764 296.401 44.3764C297.112 44.3764 297.732 44.2315 298.261 43.9418C298.793 43.652 299.205 43.2429 299.494 42.7145C299.788 42.1818 299.935 41.5554 299.935 40.8352L300.447 40.9311H296.701V39.3011H301.847V40.7905C301.847 41.8899 301.612 42.8445 301.144 43.6541C300.679 44.4595 300.036 45.0817 299.213 45.5206C298.395 45.9595 297.457 46.179 296.401 46.179C295.216 46.179 294.176 45.9062 293.281 45.3608C292.391 44.8153 291.696 44.0419 291.197 43.0405C290.699 42.0348 290.45 40.8416 290.45 39.4609C290.45 38.4169 290.594 37.4794 290.884 36.6484C291.174 35.8175 291.581 35.1122 292.105 34.5327C292.634 33.9489 293.254 33.5036 293.965 33.1967C294.681 32.8857 295.463 32.7301 296.311 32.7301C297.019 32.7301 297.677 32.8345 298.286 33.0433C298.9 33.2521 299.445 33.5483 299.923 33.9318C300.404 34.3153 300.803 34.7713 301.118 35.2997C301.433 35.8239 301.646 36.4055 301.757 37.0447H299.731ZM306.896 46.1982C305.976 46.1982 305.172 45.9872 304.486 45.5653C303.8 45.1435 303.268 44.5533 302.888 43.7947C302.509 43.0362 302.319 42.1499 302.319 41.1357C302.319 40.1172 302.509 39.2266 302.888 38.4638C303.268 37.701 303.8 37.1087 304.486 36.6868C305.172 36.2649 305.976 36.054 306.896 36.054C307.817 36.054 308.62 36.2649 309.306 36.6868C309.992 37.1087 310.525 37.701 310.904 38.4638C311.283 39.2266 311.473 40.1172 311.473 41.1357C311.473 42.1499 311.283 43.0362 310.904 43.7947C310.525 44.5533 309.992 45.1435 309.306 45.5653C308.62 45.9872 307.817 46.1982 306.896 46.1982ZM306.903 44.5938C307.499 44.5938 307.993 44.4361 308.386 44.1207C308.778 43.8054 309.067 43.3857 309.255 42.8615C309.447 42.3374 309.542 41.7599 309.542 41.1293C309.542 40.5028 309.447 39.9276 309.255 39.4034C309.067 38.875 308.778 38.451 308.386 38.1314C307.993 37.8118 307.499 37.652 306.903 37.652C306.302 37.652 305.803 37.8118 305.407 38.1314C305.015 38.451 304.723 38.875 304.531 39.4034C304.344 39.9276 304.25 40.5028 304.25 41.1293C304.25 41.7599 304.344 42.3374 304.531 42.8615C304.723 43.3857 305.015 43.8054 305.407 44.1207C305.803 44.4361 306.302 44.5938 306.903 44.5938ZM316.302 46.1982C315.381 46.1982 314.578 45.9872 313.892 45.5653C313.206 45.1435 312.673 44.5533 312.294 43.7947C311.915 43.0362 311.725 42.1499 311.725 41.1357C311.725 40.1172 311.915 39.2266 312.294 38.4638C312.673 37.701 313.206 37.1087 313.892 36.6868C314.578 36.2649 315.381 36.054 316.302 36.054C317.222 36.054 318.026 36.2649 318.712 36.6868C319.398 37.1087 319.93 37.701 320.31 38.4638C320.689 39.2266 320.879 40.1172 320.879 41.1357C320.879 42.1499 320.689 43.0362 320.31 43.7947C319.93 44.5533 319.398 45.1435 318.712 45.5653C318.026 45.9872 317.222 46.1982 316.302 46.1982ZM316.308 44.5938C316.905 44.5938 317.399 44.4361 317.791 44.1207C318.183 43.8054 318.473 43.3857 318.661 42.8615C318.852 42.3374 318.948 41.7599 318.948 41.1293C318.948 40.5028 318.852 39.9276 318.661 39.4034C318.473 38.875 318.183 38.451 317.791 38.1314C317.399 37.8118 316.905 37.652 316.308 37.652C315.707 37.652 315.209 37.8118 314.813 38.1314C314.42 38.451 314.129 38.875 313.937 39.4034C313.749 39.9276 313.656 40.5028 313.656 41.1293C313.656 41.7599 313.749 42.3374 313.937 42.8615C314.129 43.3857 314.42 43.8054 314.813 44.1207C315.209 44.4361 315.707 44.5938 316.308 44.5938ZM325.688 49.8864C324.909 49.8864 324.237 49.7841 323.675 49.5795C323.117 49.375 322.661 49.1044 322.307 48.7678C321.953 48.4311 321.689 48.0625 321.514 47.6619L323.157 46.9844C323.272 47.1719 323.426 47.37 323.617 47.5788C323.813 47.7919 324.078 47.973 324.41 48.1222C324.747 48.2713 325.179 48.3459 325.708 48.3459C326.432 48.3459 327.031 48.169 327.504 47.8153C327.977 47.4659 328.213 46.9077 328.213 46.1406V44.2102H328.092C327.977 44.419 327.811 44.6513 327.593 44.907C327.38 45.1626 327.086 45.3842 326.711 45.5717C326.336 45.7592 325.848 45.853 325.247 45.853C324.472 45.853 323.773 45.6719 323.151 45.3097C322.533 44.9432 322.043 44.4041 321.681 43.6925C321.323 42.9766 321.144 42.0966 321.144 41.0526C321.144 40.0085 321.32 39.1136 321.674 38.3679C322.032 37.6222 322.522 37.0511 323.144 36.6548C323.767 36.2543 324.472 36.054 325.26 36.054C325.869 36.054 326.362 36.1562 326.737 36.3608C327.112 36.5611 327.404 36.7955 327.612 37.0639C327.825 37.3324 327.99 37.5689 328.105 37.7734H328.245V36.1818H330.118V46.2173C330.118 47.0611 329.922 47.7536 329.53 48.2947C329.138 48.8359 328.607 49.2365 327.938 49.4964C327.274 49.7564 326.524 49.8864 325.688 49.8864ZM325.669 44.2678C326.219 44.2678 326.683 44.1399 327.063 43.8842C327.446 43.6243 327.736 43.2536 327.932 42.772C328.132 42.2862 328.232 41.7045 328.232 41.027C328.232 40.3665 328.134 39.7848 327.938 39.282C327.742 38.7791 327.455 38.3871 327.075 38.1058C326.696 37.8203 326.227 37.6776 325.669 37.6776C325.094 37.6776 324.615 37.8267 324.231 38.125C323.847 38.419 323.558 38.8196 323.362 39.3267C323.17 39.8338 323.074 40.4006 323.074 41.027C323.074 41.6705 323.172 42.2351 323.368 42.7209C323.564 43.2067 323.854 43.5859 324.237 43.8587C324.625 44.1314 325.102 44.2678 325.669 44.2678ZM333.153 32.9091V46H331.241V32.9091H333.153ZM338.515 46.1982C337.548 46.1982 336.715 45.9915 336.016 45.5781C335.321 45.1605 334.784 44.5746 334.405 43.8203C334.03 43.0618 333.843 42.1733 333.843 41.1548C333.843 40.1491 334.03 39.2628 334.405 38.4957C334.784 37.7287 335.313 37.13 335.99 36.6996C336.672 36.2692 337.469 36.054 338.381 36.054C338.935 36.054 339.472 36.1456 339.992 36.3288C340.512 36.5121 340.978 36.7997 341.392 37.1918C341.805 37.5838 342.131 38.093 342.37 38.7195C342.608 39.3416 342.728 40.098 342.728 40.9886V41.6662H334.923V40.2344H340.855C340.855 39.7315 340.752 39.2862 340.548 38.8984C340.343 38.5064 340.056 38.1974 339.685 37.9716C339.319 37.7457 338.888 37.6328 338.394 37.6328C337.857 37.6328 337.388 37.7649 336.988 38.0291C336.591 38.2891 336.284 38.63 336.067 39.0518C335.854 39.4695 335.747 39.9233 335.747 40.4134V41.532C335.747 42.1882 335.863 42.7464 336.093 43.2067C336.327 43.6669 336.653 44.0185 337.071 44.2614C337.488 44.5 337.976 44.6193 338.534 44.6193C338.897 44.6193 339.227 44.5682 339.525 44.4659C339.823 44.3594 340.081 44.2017 340.299 43.9929C340.516 43.7841 340.682 43.5263 340.797 43.2195L342.606 43.5455C342.461 44.0781 342.201 44.5447 341.826 44.9453C341.456 45.3416 340.989 45.6506 340.426 45.8722C339.868 46.0895 339.231 46.1982 338.515 46.1982Z" fill="black"/>
<path d="M121.608 64.3636V76H120.545V64.3636H121.608ZM126.489 67.2727V68.1534H122.324V67.2727H126.489ZM123.625 65.1818H124.642V73.7216C124.642 74.0852 124.705 74.3712 124.83 74.5795C124.955 74.7841 125.118 74.9299 125.319 75.017C125.519 75.1004 125.733 75.142 125.961 75.142C126.093 75.142 126.207 75.1345 126.301 75.1193C126.396 75.1004 126.48 75.0814 126.551 75.0625L126.767 75.9773C126.669 76.0152 126.548 76.0492 126.404 76.0795C126.26 76.1136 126.082 76.1307 125.87 76.1307C125.498 76.1307 125.14 76.0492 124.796 75.8864C124.455 75.7235 124.175 75.4811 123.955 75.1591C123.735 74.8371 123.625 74.4375 123.625 73.9602V65.1818ZM128.641 64.3636V65.3864C128.641 65.697 128.584 66.0284 128.471 66.3807C128.361 66.7292 128.198 67.0682 127.982 67.3977C127.77 67.7235 127.513 68.0076 127.209 68.25L126.658 67.767C126.942 67.4337 127.183 67.0644 127.38 66.6591C127.577 66.25 127.675 65.8314 127.675 65.4034V64.3636H128.641ZM133.738 69.1875L132.812 69.4489C132.721 69.1875 132.592 68.9508 132.426 68.7386C132.259 68.5265 132.041 68.358 131.772 68.233C131.507 68.108 131.178 68.0455 130.784 68.0455C130.193 68.0455 129.708 68.1856 129.329 68.4659C128.95 68.7462 128.761 69.108 128.761 69.5511C128.761 69.9261 128.89 70.2311 129.147 70.4659C129.409 70.697 129.81 70.8807 130.352 71.017L131.67 71.3409C132.401 71.5189 132.948 71.8011 133.312 72.1875C133.68 72.5739 133.863 73.0587 133.863 73.642C133.863 74.1345 133.727 74.572 133.454 74.9545C133.181 75.3371 132.801 75.6383 132.312 75.858C131.827 76.0739 131.265 76.1818 130.625 76.1818C129.772 76.1818 129.07 75.9905 128.517 75.608C127.964 75.2216 127.609 74.6648 127.454 73.9375L128.426 73.6989C128.551 74.2178 128.795 74.6098 129.159 74.875C129.526 75.1402 130.009 75.2727 130.608 75.2727C131.278 75.2727 131.814 75.1231 132.216 74.8239C132.617 74.5208 132.818 74.142 132.818 73.6875C132.818 73.3352 132.7 73.0398 132.466 72.8011C132.231 72.5587 131.875 72.3807 131.397 72.267L129.971 71.9261C129.214 71.7443 128.653 71.4564 128.289 71.0625C127.926 70.6686 127.744 70.1799 127.744 69.5966C127.744 69.1155 127.875 68.6932 128.136 68.3295C128.397 67.9621 128.757 67.6742 129.216 67.4659C129.674 67.2576 130.197 67.1534 130.784 67.1534C131.583 67.1534 132.221 67.3352 132.698 67.6989C133.18 68.0587 133.526 68.5549 133.738 69.1875ZM138.709 70.5455V76H137.698V67.2727H138.681V68.642H138.772C138.976 68.1951 139.294 67.8371 139.726 67.5682C140.162 67.2955 140.7 67.1591 141.34 67.1591C141.927 67.1591 142.442 67.2822 142.885 67.5284C143.332 67.7708 143.679 68.1288 143.925 68.6023C144.175 69.0758 144.3 69.6572 144.3 70.3466V76H143.289V70.4091C143.289 69.6932 143.088 69.1269 142.686 68.7102C142.289 68.2936 141.755 68.0852 141.084 68.0852C140.626 68.0852 140.219 68.1837 139.862 68.3807C139.506 68.5777 139.224 68.8617 139.016 69.233C138.811 69.6004 138.709 70.0379 138.709 70.5455ZM148.915 76.1818C148.162 76.1818 147.495 75.9905 146.915 75.608C146.34 75.2254 145.889 74.697 145.563 74.0227C145.237 73.3447 145.074 72.5625 145.074 71.6761C145.074 70.7822 145.237 69.9962 145.563 69.3182C145.889 68.6364 146.34 68.1061 146.915 67.7273C147.495 67.3447 148.162 67.1534 148.915 67.1534C149.669 67.1534 150.334 67.3447 150.91 67.7273C151.485 68.1098 151.936 68.6402 152.262 69.3182C152.592 69.9962 152.756 70.7822 152.756 71.6761C152.756 72.5625 152.593 73.3447 152.268 74.0227C151.942 74.697 151.489 75.2254 150.91 75.608C150.334 75.9905 149.669 76.1818 148.915 76.1818ZM148.915 75.2557C149.521 75.2557 150.035 75.0928 150.455 74.767C150.876 74.4413 151.194 74.0076 151.41 73.4659C151.629 72.9242 151.739 72.3277 151.739 71.6761C151.739 71.0246 151.629 70.4261 151.41 69.8807C151.194 69.3352 150.876 68.8977 150.455 68.5682C150.035 68.2386 149.521 68.0739 148.915 68.0739C148.313 68.0739 147.8 68.2386 147.376 68.5682C146.955 68.8977 146.635 69.3352 146.415 69.8807C146.199 70.4261 146.092 71.0246 146.092 71.6761C146.092 72.3277 146.199 72.9242 146.415 73.4659C146.635 74.0076 146.955 74.4413 147.376 74.767C147.796 75.0928 148.309 75.2557 148.915 75.2557ZM155.177 76L152.541 67.2727H153.609L155.677 74.4716H155.751L157.813 67.2727H158.887L160.933 74.4545H161.012L163.081 67.2727H164.149L161.512 76H160.467L158.399 68.8466H158.291L156.223 76H155.177ZM170.172 76.1989C169.646 76.1989 169.165 76.0966 168.729 75.892C168.293 75.6837 167.947 75.3845 167.689 74.9943C167.432 74.6004 167.303 74.1231 167.303 73.5625C167.303 73.1307 167.384 72.767 167.547 72.4716C167.71 72.1761 167.941 71.9337 168.24 71.7443C168.54 71.5549 168.894 71.4053 169.303 71.2955C169.712 71.1856 170.163 71.1004 170.655 71.0398C171.144 70.9792 171.557 70.9261 171.894 70.8807C172.235 70.8352 172.494 70.7633 172.672 70.6648C172.85 70.5663 172.939 70.4072 172.939 70.1875V69.983C172.939 69.3883 172.761 68.9205 172.405 68.5795C172.053 68.2348 171.545 68.0625 170.882 68.0625C170.254 68.0625 169.74 68.2008 169.343 68.4773C168.949 68.7538 168.672 69.0795 168.513 69.4545L167.553 69.108C167.75 68.6307 168.022 68.25 168.371 67.9659C168.719 67.678 169.11 67.4716 169.541 67.3466C169.973 67.2178 170.411 67.1534 170.854 67.1534C171.187 67.1534 171.534 67.197 171.894 67.2841C172.257 67.3712 172.594 67.5227 172.905 67.7386C173.216 67.9508 173.468 68.2481 173.661 68.6307C173.854 69.0095 173.951 69.4905 173.951 70.0739V76H172.939V74.6193H172.877C172.755 74.8769 172.576 75.1269 172.337 75.3693C172.098 75.6117 171.799 75.8106 171.439 75.9659C171.079 76.1212 170.657 76.1989 170.172 76.1989ZM170.308 75.2727C170.846 75.2727 171.312 75.1534 171.706 74.9148C172.1 74.6761 172.403 74.3598 172.615 73.9659C172.831 73.5682 172.939 73.1307 172.939 72.6534V71.392C172.863 71.464 172.736 71.5284 172.558 71.5852C172.384 71.642 172.182 71.6932 171.951 71.7386C171.723 71.7803 171.496 71.8163 171.269 71.8466C171.041 71.8769 170.837 71.9034 170.655 71.9261C170.163 71.9867 169.742 72.0814 169.394 72.2102C169.045 72.339 168.778 72.517 168.593 72.7443C168.407 72.9678 168.314 73.2557 168.314 73.608C168.314 74.1383 168.504 74.5492 168.882 74.8409C169.261 75.1288 169.736 75.2727 170.308 75.2727ZM181.644 67.2727L178.457 76H177.377L174.189 67.2727H175.286L177.877 74.6648H177.957L180.547 67.2727H181.644ZM184.355 76.1989C183.828 76.1989 183.347 76.0966 182.911 75.892C182.476 75.6837 182.129 75.3845 181.872 74.9943C181.614 74.6004 181.485 74.1231 181.485 73.5625C181.485 73.1307 181.567 72.767 181.73 72.4716C181.892 72.1761 182.124 71.9337 182.423 71.7443C182.722 71.5549 183.076 71.4053 183.485 71.2955C183.894 71.1856 184.345 71.1004 184.838 71.0398C185.326 70.9792 185.739 70.9261 186.076 70.8807C186.417 70.8352 186.677 70.7633 186.855 70.6648C187.033 70.5663 187.122 70.4072 187.122 70.1875V69.983C187.122 69.3883 186.944 68.9205 186.588 68.5795C186.235 68.2348 185.728 68.0625 185.065 68.0625C184.436 68.0625 183.923 68.2008 183.525 68.4773C183.131 68.7538 182.855 69.0795 182.696 69.4545L181.735 69.108C181.932 68.6307 182.205 68.25 182.553 67.9659C182.902 67.678 183.292 67.4716 183.724 67.3466C184.156 67.2178 184.593 67.1534 185.036 67.1534C185.37 67.1534 185.716 67.197 186.076 67.2841C186.44 67.3712 186.777 67.5227 187.088 67.7386C187.398 67.9508 187.65 68.2481 187.843 68.6307C188.036 69.0095 188.133 69.4905 188.133 70.0739V76H187.122V74.6193H187.059C186.938 74.8769 186.758 75.1269 186.519 75.3693C186.281 75.6117 185.981 75.8106 185.622 75.9659C185.262 76.1212 184.839 76.1989 184.355 76.1989ZM184.491 75.2727C185.029 75.2727 185.495 75.1534 185.889 74.9148C186.283 74.6761 186.586 74.3598 186.798 73.9659C187.014 73.5682 187.122 73.1307 187.122 72.6534V71.392C187.046 71.464 186.919 71.5284 186.741 71.5852C186.567 71.642 186.364 71.6932 186.133 71.7386C185.906 71.7803 185.678 71.8163 185.451 71.8466C185.224 71.8769 185.019 71.9034 184.838 71.9261C184.345 71.9867 183.925 72.0814 183.576 72.2102C183.228 72.339 182.961 72.517 182.775 72.7443C182.589 72.9678 182.497 73.2557 182.497 73.608C182.497 74.1383 182.686 74.5492 183.065 74.8409C183.444 75.1288 183.919 75.2727 184.491 75.2727ZM189.395 76V67.2727H190.412V76H189.395ZM189.912 65.7727C189.703 65.7727 189.525 65.7027 189.378 65.5625C189.23 65.4186 189.156 65.2462 189.156 65.0455C189.156 64.8447 189.23 64.6742 189.378 64.5341C189.525 64.3902 189.703 64.3182 189.912 64.3182C190.12 64.3182 190.298 64.3902 190.446 64.5341C190.594 64.6742 190.667 64.8447 190.667 65.0455C190.667 65.2462 190.594 65.4186 190.446 65.5625C190.298 65.7027 190.12 65.7727 189.912 65.7727ZM192.658 64.3636V76H191.646V64.3636H192.658ZM196.331 76.1989C195.805 76.1989 195.324 76.0966 194.888 75.892C194.453 75.6837 194.106 75.3845 193.849 74.9943C193.591 74.6004 193.462 74.1231 193.462 73.5625C193.462 73.1307 193.544 72.767 193.706 72.4716C193.869 72.1761 194.1 71.9337 194.4 71.7443C194.699 71.5549 195.053 71.4053 195.462 71.2955C195.871 71.1856 196.322 71.1004 196.814 71.0398C197.303 70.9792 197.716 70.9261 198.053 70.8807C198.394 70.8352 198.653 70.7633 198.831 70.6648C199.01 70.5663 199.099 70.4072 199.099 70.1875V69.983C199.099 69.3883 198.92 68.9205 198.564 68.5795C198.212 68.2348 197.705 68.0625 197.042 68.0625C196.413 68.0625 195.9 68.2008 195.502 68.4773C195.108 68.7538 194.831 69.0795 194.672 69.4545L193.712 69.108C193.909 68.6307 194.182 68.25 194.53 67.9659C194.879 67.678 195.269 67.4716 195.701 67.3466C196.133 67.2178 196.57 67.1534 197.013 67.1534C197.347 67.1534 197.693 67.197 198.053 67.2841C198.417 67.3712 198.754 67.5227 199.064 67.7386C199.375 67.9508 199.627 68.2481 199.82 68.6307C200.013 69.0095 200.11 69.4905 200.11 70.0739V76H199.099V74.6193H199.036C198.915 74.8769 198.735 75.1269 198.496 75.3693C198.258 75.6117 197.958 75.8106 197.599 75.9659C197.239 76.1212 196.816 76.1989 196.331 76.1989ZM196.468 75.2727C197.006 75.2727 197.472 75.1534 197.866 74.9148C198.26 74.6761 198.563 74.3598 198.775 73.9659C198.991 73.5682 199.099 73.1307 199.099 72.6534V71.392C199.023 71.464 198.896 71.5284 198.718 71.5852C198.544 71.642 198.341 71.6932 198.11 71.7386C197.883 71.7803 197.655 71.8163 197.428 71.8466C197.201 71.8769 196.996 71.9034 196.814 71.9261C196.322 71.9867 195.902 72.0814 195.553 72.2102C195.205 72.339 194.938 72.517 194.752 72.7443C194.566 72.9678 194.474 73.2557 194.474 73.608C194.474 74.1383 194.663 74.5492 195.042 74.8409C195.42 75.1288 195.896 75.2727 196.468 75.2727ZM201.57 76V64.3636H202.588V68.9375H202.678C202.792 68.6761 202.955 68.4072 203.167 68.1307C203.383 67.8542 203.665 67.6231 204.014 67.4375C204.366 67.2481 204.809 67.1534 205.343 67.1534C206.059 67.1534 206.688 67.3428 207.23 67.7216C207.771 68.0966 208.194 68.6231 208.497 69.3011C208.8 69.9754 208.951 70.7614 208.951 71.6591C208.951 72.5606 208.8 73.3504 208.497 74.0284C208.197 74.7064 207.777 75.2348 207.235 75.6136C206.697 75.9924 206.072 76.1818 205.36 76.1818C204.83 76.1818 204.387 76.0871 204.031 75.8977C203.678 75.7083 203.394 75.4754 203.178 75.1989C202.963 74.9186 202.796 74.6458 202.678 74.3807H202.553V76H201.57ZM202.57 71.642C202.57 72.3466 202.675 72.9716 202.883 73.517C203.095 74.0587 203.398 74.4848 203.792 74.7955C204.19 75.1023 204.671 75.2557 205.235 75.2557C205.815 75.2557 206.305 75.0966 206.707 74.7784C207.108 74.4564 207.413 74.0227 207.622 73.4773C207.83 72.9318 207.934 72.3201 207.934 71.642C207.934 70.9716 207.83 70.3674 207.622 69.8295C207.417 69.2917 207.114 68.8655 206.713 68.5511C206.311 68.233 205.819 68.0739 205.235 68.0739C204.667 68.0739 204.184 68.2273 203.786 68.5341C203.392 68.8371 203.091 69.2576 202.883 69.7955C202.675 70.3295 202.57 70.9451 202.57 71.642ZM210.744 64.3636V76H209.733V64.3636H210.744ZM215.509 76.1818C214.694 76.1818 213.99 75.9924 213.395 75.6136C212.8 75.2311 212.34 74.7027 212.014 74.0284C211.692 73.3504 211.531 72.5701 211.531 71.6875C211.531 70.8087 211.692 70.0284 212.014 69.3466C212.34 68.661 212.789 68.125 213.361 67.7386C213.937 67.3485 214.601 67.1534 215.355 67.1534C215.829 67.1534 216.285 67.2405 216.725 67.4148C217.164 67.5852 217.558 67.8485 217.906 68.2045C218.259 68.5568 218.537 69.0019 218.742 69.5398C218.946 70.0739 219.048 70.7064 219.048 71.4375V71.9375H212.23V71.0455H218.014C218.014 70.4848 217.901 69.9811 217.673 69.5341C217.45 69.0833 217.137 68.7273 216.736 68.4659C216.338 68.2045 215.878 68.0739 215.355 68.0739C214.802 68.0739 214.315 68.2216 213.895 68.517C213.475 68.8125 213.145 69.2027 212.906 69.6875C212.672 70.1723 212.552 70.7027 212.548 71.2784V71.8125C212.548 72.5057 212.668 73.1117 212.906 73.6307C213.149 74.1458 213.492 74.5455 213.935 74.8295C214.378 75.1136 214.903 75.2557 215.509 75.2557C215.922 75.2557 216.283 75.1913 216.594 75.0625C216.908 74.9337 217.172 74.7614 217.384 74.5455C217.6 74.3258 217.762 74.0852 217.872 73.8239L218.832 74.1364C218.7 74.5038 218.482 74.8428 218.179 75.1534C217.88 75.464 217.505 75.714 217.054 75.9034C216.607 76.089 216.092 76.1818 215.509 76.1818ZM226.289 76.1818C225.535 76.1818 224.869 75.9905 224.289 75.608C223.713 75.2254 223.263 74.697 222.937 74.0227C222.611 73.3447 222.448 72.5625 222.448 71.6761C222.448 70.7822 222.611 69.9962 222.937 69.3182C223.263 68.6364 223.713 68.1061 224.289 67.7273C224.869 67.3447 225.535 67.1534 226.289 67.1534C227.043 67.1534 227.708 67.3447 228.283 67.7273C228.859 68.1098 229.31 68.6402 229.636 69.3182C229.965 69.9962 230.13 70.7822 230.13 71.6761C230.13 72.5625 229.967 73.3447 229.641 74.0227C229.316 74.697 228.863 75.2254 228.283 75.608C227.708 75.9905 227.043 76.1818 226.289 76.1818ZM226.289 75.2557C226.895 75.2557 227.408 75.0928 227.829 74.767C228.249 74.4413 228.568 74.0076 228.783 73.4659C229.003 72.9242 229.113 72.3277 229.113 71.6761C229.113 71.0246 229.003 70.4261 228.783 69.8807C228.568 69.3352 228.249 68.8977 227.829 68.5682C227.408 68.2386 226.895 68.0739 226.289 68.0739C225.687 68.0739 225.174 68.2386 224.749 68.5682C224.329 68.8977 224.009 69.3352 223.789 69.8807C223.573 70.4261 223.465 71.0246 223.465 71.6761C223.465 72.3277 223.573 72.9242 223.789 73.4659C224.009 74.0076 224.329 74.4413 224.749 74.767C225.17 75.0928 225.683 75.2557 226.289 75.2557ZM231.922 70.5455V76H230.91V67.2727H231.893V68.642H231.984C232.189 68.1951 232.507 67.8371 232.939 67.5682C233.374 67.2955 233.912 67.1591 234.552 67.1591C235.139 67.1591 235.655 67.2822 236.098 67.5284C236.545 67.7708 236.891 68.1288 237.137 68.6023C237.387 69.0758 237.512 69.6572 237.512 70.3466V76H236.501V70.4091C236.501 69.6932 236.3 69.1269 235.899 68.7102C235.501 68.2936 234.967 68.0852 234.297 68.0852C233.838 68.0852 233.431 68.1837 233.075 68.3807C232.719 68.5777 232.437 68.8617 232.228 69.233C232.024 69.6004 231.922 70.0379 231.922 70.5455ZM245.188 76.1818C244.434 76.1818 243.767 75.9905 243.188 75.608C242.612 75.2254 242.161 74.697 241.836 74.0227C241.51 73.3447 241.347 72.5625 241.347 71.6761C241.347 70.7822 241.51 69.9962 241.836 69.3182C242.161 68.6364 242.612 68.1061 243.188 67.7273C243.767 67.3447 244.434 67.1534 245.188 67.1534C245.942 67.1534 246.606 67.3447 247.182 67.7273C247.758 68.1098 248.209 68.6402 248.534 69.3182C248.864 69.9962 249.029 70.7822 249.029 71.6761C249.029 72.5625 248.866 73.3447 248.54 74.0227C248.214 74.697 247.762 75.2254 247.182 75.608C246.606 75.9905 245.942 76.1818 245.188 76.1818ZM245.188 75.2557C245.794 75.2557 246.307 75.0928 246.728 74.767C247.148 74.4413 247.466 74.0076 247.682 73.4659C247.902 72.9242 248.012 72.3277 248.012 71.6761C248.012 71.0246 247.902 70.4261 247.682 69.8807C247.466 69.3352 247.148 68.8977 246.728 68.5682C246.307 68.2386 245.794 68.0739 245.188 68.0739C244.586 68.0739 244.072 68.2386 243.648 68.5682C243.228 68.8977 242.908 69.3352 242.688 69.8807C242.472 70.4261 242.364 71.0246 242.364 71.6761C242.364 72.3277 242.472 72.9242 242.688 73.4659C242.908 74.0076 243.228 74.4413 243.648 74.767C244.069 75.0928 244.582 75.2557 245.188 75.2557ZM255.354 72.6648V67.2727H256.366V76H255.354V74.5511H255.275C255.07 74.9981 254.746 75.3712 254.303 75.6705C253.86 75.9659 253.318 76.1136 252.678 76.1136C252.121 76.1136 251.627 75.9924 251.195 75.75C250.764 75.5038 250.425 75.1439 250.178 74.6705C249.932 74.197 249.809 73.6155 249.809 72.9261V67.2727H250.82V72.8636C250.82 73.5455 251.021 74.0947 251.423 74.5114C251.824 74.9242 252.339 75.1307 252.968 75.1307C253.362 75.1307 253.741 75.036 254.104 74.8466C254.468 74.6572 254.767 74.3807 255.002 74.017C255.237 73.6496 255.354 73.1989 255.354 72.6648ZM257.603 76V67.2727H258.586V68.6136H258.66C258.834 68.1742 259.137 67.8201 259.569 67.5511C260.005 67.2784 260.497 67.142 261.047 67.142C261.13 67.142 261.223 67.1439 261.325 67.1477C261.427 67.1515 261.512 67.1553 261.581 67.1591V68.1875C261.535 68.1799 261.456 68.1686 261.342 68.1534C261.228 68.1383 261.105 68.1307 260.973 68.1307C260.518 68.1307 260.113 68.2273 259.757 68.4205C259.404 68.6098 259.126 68.8731 258.922 69.2102C258.717 69.5473 258.615 69.9318 258.615 70.3636V76H257.603ZM270.79 69.1875L269.864 69.4489C269.773 69.1875 269.644 68.9508 269.478 68.7386C269.311 68.5265 269.093 68.358 268.824 68.233C268.559 68.108 268.23 68.0455 267.836 68.0455C267.245 68.0455 266.76 68.1856 266.381 68.4659C266.002 68.7462 265.813 69.108 265.813 69.5511C265.813 69.9261 265.942 70.2311 266.199 70.4659C266.461 70.697 266.862 70.8807 267.404 71.017L268.722 71.3409C269.453 71.5189 270 71.8011 270.364 72.1875C270.731 72.5739 270.915 73.0587 270.915 73.642C270.915 74.1345 270.779 74.572 270.506 74.9545C270.233 75.3371 269.853 75.6383 269.364 75.858C268.879 76.0739 268.317 76.1818 267.676 76.1818C266.824 76.1818 266.122 75.9905 265.569 75.608C265.015 75.2216 264.661 74.6648 264.506 73.9375L265.478 73.6989C265.603 74.2178 265.847 74.6098 266.211 74.875C266.578 75.1402 267.061 75.2727 267.659 75.2727C268.33 75.2727 268.866 75.1231 269.267 74.8239C269.669 74.5208 269.87 74.142 269.87 73.6875C269.87 73.3352 269.752 73.0398 269.517 72.8011C269.283 72.5587 268.926 72.3807 268.449 72.267L267.023 71.9261C266.265 71.7443 265.705 71.4564 265.341 71.0625C264.978 70.6686 264.796 70.1799 264.796 69.5966C264.796 69.1155 264.926 68.6932 265.188 68.3295C265.449 67.9621 265.809 67.6742 266.267 67.4659C266.726 67.2576 267.248 67.1534 267.836 67.1534C268.635 67.1534 269.273 67.3352 269.75 67.6989C270.231 68.0587 270.578 68.5549 270.79 69.1875ZM275.218 76.1818C274.404 76.1818 273.699 75.9924 273.104 75.6136C272.51 75.2311 272.049 74.7027 271.724 74.0284C271.402 73.3504 271.241 72.5701 271.241 71.6875C271.241 70.8087 271.402 70.0284 271.724 69.3466C272.049 68.661 272.498 68.125 273.07 67.7386C273.646 67.3485 274.311 67.1534 275.065 67.1534C275.538 67.1534 275.995 67.2405 276.434 67.4148C276.873 67.5852 277.267 67.8485 277.616 68.2045C277.968 68.5568 278.246 69.0019 278.451 69.5398C278.656 70.0739 278.758 70.7064 278.758 71.4375V71.9375H271.94V71.0455H277.724C277.724 70.4848 277.61 69.9811 277.383 69.5341C277.159 69.0833 276.847 68.7273 276.445 68.4659C276.048 68.2045 275.587 68.0739 275.065 68.0739C274.512 68.0739 274.025 68.2216 273.604 68.517C273.184 68.8125 272.854 69.2027 272.616 69.6875C272.381 70.1723 272.262 70.7027 272.258 71.2784V71.8125C272.258 72.5057 272.377 73.1117 272.616 73.6307C272.858 74.1458 273.201 74.5455 273.644 74.8295C274.087 75.1136 274.612 75.2557 275.218 75.2557C275.631 75.2557 275.993 75.1913 276.303 75.0625C276.618 74.9337 276.881 74.7614 277.093 74.5455C277.309 74.3258 277.472 74.0852 277.582 73.8239L278.542 74.1364C278.409 74.5038 278.191 74.8428 277.888 75.1534C277.589 75.464 277.214 75.714 276.763 75.9034C276.316 76.089 275.801 76.1818 275.218 76.1818ZM279.546 76V67.2727H280.529V68.6136H280.603C280.778 68.1742 281.081 67.8201 281.512 67.5511C281.948 67.2784 282.44 67.142 282.99 67.142C283.073 67.142 283.166 67.1439 283.268 67.1477C283.37 67.1515 283.456 67.1553 283.524 67.1591V68.1875C283.478 68.1799 283.399 68.1686 283.285 68.1534C283.171 68.1383 283.048 68.1307 282.916 68.1307C282.461 68.1307 282.056 68.2273 281.7 68.4205C281.348 68.6098 281.069 68.8731 280.865 69.2102C280.66 69.5473 280.558 69.9318 280.558 70.3636V76H279.546ZM290.831 67.2727L287.643 76H286.564L283.376 67.2727H284.473L287.064 74.6648H287.143L289.734 67.2727H290.831ZM291.381 76V67.2727H292.398V76H291.381ZM291.898 65.7727C291.69 65.7727 291.512 65.7027 291.364 65.5625C291.216 65.4186 291.142 65.2462 291.142 65.0455C291.142 64.8447 291.216 64.6742 291.364 64.5341C291.512 64.3902 291.69 64.3182 291.898 64.3182C292.106 64.3182 292.284 64.3902 292.432 64.5341C292.58 64.6742 292.654 64.8447 292.654 65.0455C292.654 65.2462 292.58 65.4186 292.432 65.5625C292.284 65.7027 292.106 65.7727 291.898 65.7727ZM297.042 76.1818C296.262 76.1818 295.582 75.9867 295.002 75.5966C294.426 75.2064 293.979 74.6723 293.661 73.9943C293.343 73.3163 293.184 72.5436 293.184 71.6761C293.184 70.8011 293.345 70.0227 293.667 69.3409C293.993 68.6591 294.443 68.125 295.019 67.7386C295.595 67.3485 296.263 67.1534 297.025 67.1534C297.608 67.1534 298.137 67.267 298.61 67.4943C299.083 67.7178 299.474 68.0341 299.78 68.4432C300.091 68.8485 300.286 69.322 300.366 69.8636H299.343C299.237 69.3712 298.981 68.9508 298.576 68.6023C298.174 68.25 297.663 68.0739 297.042 68.0739C296.485 68.0739 295.993 68.2254 295.565 68.5284C295.137 68.8277 294.801 69.2462 294.559 69.7841C294.32 70.3182 294.201 70.9375 294.201 71.642C294.201 72.3504 294.318 72.9773 294.553 73.5227C294.788 74.0644 295.118 74.4886 295.542 74.7955C295.97 75.1023 296.47 75.2557 297.042 75.2557C297.428 75.2557 297.78 75.1837 298.099 75.0398C298.421 74.892 298.69 74.6837 298.905 74.4148C299.125 74.1458 299.273 73.8258 299.349 73.4545H300.371C300.296 73.9811 300.108 74.4508 299.809 74.8636C299.513 75.2727 299.129 75.5947 298.655 75.8295C298.186 76.0644 297.648 76.1818 297.042 76.1818ZM304.627 76.1818C303.813 76.1818 303.108 75.9924 302.514 75.6136C301.919 75.2311 301.459 74.7027 301.133 74.0284C300.811 73.3504 300.65 72.5701 300.65 71.6875C300.65 70.8087 300.811 70.0284 301.133 69.3466C301.459 68.661 301.908 68.125 302.48 67.7386C303.055 67.3485 303.72 67.1534 304.474 67.1534C304.947 67.1534 305.404 67.2405 305.843 67.4148C306.283 67.5852 306.677 67.8485 307.025 68.2045C307.377 68.5568 307.656 69.0019 307.86 69.5398C308.065 70.0739 308.167 70.7064 308.167 71.4375V71.9375H301.349V71.0455H307.133C307.133 70.4848 307.019 69.9811 306.792 69.5341C306.569 69.0833 306.256 68.7273 305.855 68.4659C305.457 68.2045 304.997 68.0739 304.474 68.0739C303.921 68.0739 303.434 68.2216 303.014 68.517C302.593 68.8125 302.264 69.2027 302.025 69.6875C301.79 70.1723 301.671 70.7027 301.667 71.2784V71.8125C301.667 72.5057 301.786 73.1117 302.025 73.6307C302.268 74.1458 302.61 74.5455 303.054 74.8295C303.497 75.1136 304.021 75.2557 304.627 75.2557C305.04 75.2557 305.402 75.1913 305.713 75.0625C306.027 74.9337 306.29 74.7614 306.502 74.5455C306.718 74.3258 306.881 74.0852 306.991 73.8239L307.951 74.1364C307.819 74.5038 307.601 74.8428 307.298 75.1534C306.999 75.464 306.624 75.714 306.173 75.9034C305.726 76.089 305.211 76.1818 304.627 76.1818ZM314.819 69.1875L313.893 69.4489C313.802 69.1875 313.674 68.9508 313.507 68.7386C313.34 68.5265 313.123 68.358 312.854 68.233C312.588 68.108 312.259 68.0455 311.865 68.0455C311.274 68.0455 310.789 68.1856 310.41 68.4659C310.032 68.7462 309.842 69.108 309.842 69.5511C309.842 69.9261 309.971 70.2311 310.229 70.4659C310.49 70.697 310.891 70.8807 311.433 71.017L312.751 71.3409C313.482 71.5189 314.03 71.8011 314.393 72.1875C314.761 72.5739 314.944 73.0587 314.944 73.642C314.944 74.1345 314.808 74.572 314.535 74.9545C314.263 75.3371 313.882 75.6383 313.393 75.858C312.908 76.0739 312.346 76.1818 311.706 76.1818C310.854 76.1818 310.151 75.9905 309.598 75.608C309.045 75.2216 308.691 74.6648 308.535 73.9375L309.507 73.6989C309.632 74.2178 309.876 74.6098 310.24 74.875C310.607 75.1402 311.09 75.2727 311.689 75.2727C312.359 75.2727 312.895 75.1231 313.297 74.8239C313.698 74.5208 313.899 74.142 313.899 73.6875C313.899 73.3352 313.782 73.0398 313.547 72.8011C313.312 72.5587 312.956 72.3807 312.479 72.267L311.052 71.9261C310.295 71.7443 309.734 71.4564 309.371 71.0625C309.007 70.6686 308.825 70.1799 308.825 69.5966C308.825 69.1155 308.956 68.6932 309.217 68.3295C309.479 67.9621 309.838 67.6742 310.297 67.4659C310.755 67.2576 311.278 67.1534 311.865 67.1534C312.664 67.1534 313.302 67.3352 313.78 67.6989C314.261 68.0587 314.607 68.5549 314.819 69.1875ZM316.526 76.0852C316.302 76.0852 316.109 76.0057 315.946 75.8466C315.787 75.6837 315.708 75.4905 315.708 75.267C315.708 75.0398 315.787 74.8466 315.946 74.6875C316.109 74.5284 316.302 74.4489 316.526 74.4489C316.753 74.4489 316.946 74.5284 317.105 74.6875C317.264 74.8466 317.344 75.0398 317.344 75.267C317.344 75.4148 317.306 75.5511 317.23 75.6761C317.158 75.8011 317.06 75.9015 316.935 75.9773C316.814 76.0492 316.677 76.0852 316.526 76.0852Z" fill="#7D7E80"/>
</g>
</g>
</g>
<defs>
<clipPath id="clip0_32_3">
<rect width="472" height="117.42" fill="white"/>
</clipPath>
<clipPath id="clip1_32_3">
<rect width="472" height="117.42" fill="white"/>
</clipPath>
<clipPath id="clip2_32_3">
<rect width="471.938" height="117.42" fill="white" transform="translate(0.0307617)"/>
</clipPath>
<clipPath id="clip3_32_3">
<rect width="32" height="32" fill="white" transform="translate(44 42)"/>
</clipPath>
</defs>
</svg>
