<svg width="584" height="308" viewBox="0 0 584 308" fill="none" xmlns="http://www.w3.org/2000/svg">
<g clip-path="url(#clip0_4_138)">
<g clip-path="url(#clip1_4_138)">
<g clip-path="url(#clip2_4_138)">
<path fill-rule="evenodd" clip-rule="evenodd" d="M-43.6667 269.325L53.0735 228.667L149.814 216.04L246.554 155.79L343.294 116.28L440.034 110.248L536.775 54.7163L633.515 -50.4917L730.255 269.325L758.309 638.397L-91.1152 666.271L-43.6667 269.325Z" fill="#0168D7" fill-opacity="0.1" stroke="#006DDB" stroke-width="3.27457"/>
<path fill-rule="evenodd" clip-rule="evenodd" d="M53.5016 223.952C55.9129 223.952 57.8677 225.907 57.8677 228.318C57.8677 230.73 55.9129 232.685 53.5016 232.685C51.0903 232.685 49.1355 230.73 49.1355 228.318C49.1355 225.907 51.0903 223.952 53.5016 223.952ZM149.556 210.854C151.967 210.854 153.922 212.809 153.922 215.22C153.922 217.631 151.967 219.586 149.556 219.586C147.144 219.586 145.19 217.631 145.19 215.22C145.19 212.809 147.144 210.854 149.556 210.854ZM246.701 150.82C249.113 150.82 251.068 152.775 251.068 155.186C251.068 157.598 249.113 159.552 246.701 159.552C244.29 159.552 242.335 157.598 242.335 155.186C242.335 152.775 244.29 150.82 246.701 150.82ZM343.847 111.525C346.259 111.525 348.213 113.48 348.213 115.891C348.213 118.303 346.259 120.257 343.847 120.257C341.436 120.257 339.481 118.303 339.481 115.891C339.481 113.48 341.436 111.525 343.847 111.525ZM440.993 104.976C443.404 104.976 445.359 106.931 445.359 109.342C445.359 111.754 443.404 113.708 440.993 113.708C438.582 113.708 436.627 111.754 436.627 109.342C436.627 106.931 438.582 104.976 440.993 104.976ZM537.047 49.3083C539.458 49.3083 541.413 51.2631 541.413 53.6744C541.413 56.0858 539.458 58.0405 537.047 58.0405C534.636 58.0405 532.681 56.0858 532.681 53.6744C532.681 51.2631 534.636 49.3083 537.047 49.3083Z" fill="#006DDB"/>
</g>
</g>
</g>
<defs>
<clipPath id="clip0_4_138">
<rect width="584" height="307.81" fill="white" transform="translate(0 0.189941)"/>
</clipPath>
<clipPath id="clip1_4_138">
<rect width="584" height="307.81" fill="white" transform="translate(0 0.189941)"/>
</clipPath>
<clipPath id="clip2_4_138">
<rect width="583.966" height="307.81" fill="white" transform="translate(0.0170898 0.189941)"/>
</clipPath>
</defs>
</svg>
